<?xml version="1.0" standalone="no"?>
<!DOCTYPE svg PUBLIC "-//W3C//DTD SVG 20010904//EN"
 "http://www.w3.org/TR/2001/REC-SVG-20010904/DTD/svg10.dtd">
<svg version="1.0" xmlns="http://www.w3.org/2000/svg"
 width="1063.000000pt" height="1063.000000pt" viewBox="0 0 1063.000000 1063.000000"
 preserveAspectRatio="xMidYMid meet">
<metadata>
Created by potrace 1.11, written by Peter Selinger 2001-2013
</metadata>
<g transform="translate(0.000000,1063.000000) scale(0.100000,-0.100000)"
fill="#000000" stroke="none">
<path d="M4007 10344 c-1 -1 -33 -4 -72 -7 -317 -26 -549 -287 -547 -618 l0
-66 -609 0 -609 -1 -35 -27 c-79 -60 -78 -149 2 -242 10 -11 29 -35 43 -53 14
-18 99 -129 190 -246 91 -117 287 -369 435 -560 149 -192 319 -411 379 -489
61 -77 131 -168 157 -203 l47 -62 0 -165 -1 -165 -41 0 c-22 0 -293 0 -601 0
-530 0 -562 -1 -595 -18 -59 -32 -88 -105 -67 -167 6 -16 105 -152 221 -301
116 -149 222 -286 236 -304 14 -18 30 -38 35 -44 6 -6 30 -38 55 -71 25 -33
52 -69 62 -80 9 -11 91 -117 182 -235 92 -118 177 -228 190 -245 13 -16 92
-118 175 -225 l150 -194 -2 -166 -2 -165 -585 -1 c-322 -1 -597 -2 -612 -3
-15 0 -43 -15 -63 -32 -42 -37 -59 -89 -45 -139 6 -21 135 -196 321 -435 171
-220 463 -596 649 -836 l338 -436 0 -167 -1 -166 -601 0 c-563 0 -604 -1 -636
-18 -42 -22 -81 -90 -74 -130 9 -51 16 -62 110 -184 52 -68 103 -134 114 -148
11 -14 28 -36 39 -50 41 -50 705 -907 745 -960 22 -30 43 -57 46 -60 3 -3 21
-25 40 -50 19 -25 37 -47 40 -50 3 -3 17 -21 30 -40 13 -19 27 -37 30 -40 3
-3 31 -38 62 -78 l57 -72 0 -124 c0 -132 14 -207 55 -299 51 -115 162 -228
282 -287 126 -62 81 -60 1414 -59 1166 0 1218 1 1289 20 128 33 263 124 330
223 89 131 112 208 117 394 l3 133 48 62 c26 34 86 112 133 172 48 61 259 333
470 605 211 272 444 573 518 668 115 148 135 179 139 215 5 53 -20 103 -66
134 l-34 23 -603 0 c-568 0 -604 1 -605 18 -1 20 -1 279 0 303 1 14 49 81 147
204 27 35 282 363 322 415 15 19 66 84 113 145 47 60 110 142 139 180 30 39
171 220 313 403 142 183 262 345 268 358 22 61 -4 135 -61 168 -34 20 -50 21
-634 21 -555 0 -599 1 -605 17 -3 10 -5 85 -5 167 2 150 2 151 31 188 159 205
498 641 709 911 142 184 268 346 279 360 11 15 75 98 143 186 67 87 129 171
137 187 32 61 7 140 -56 178 -29 18 -60 19 -630 19 -330 -1 -602 2 -606 6 -9
9 -7 321 2 336 9 15 341 443 645 833 124 159 234 301 245 317 11 15 71 93 132
172 248 315 272 349 279 383 12 64 -22 133 -78 156 -21 9 -186 12 -628 12
l-600 0 0 21 c-6 241 -49 356 -186 494 -57 57 -90 80 -156 111 -45 21 -111 44
-145 51 -47 9 -335 13 -1223 14 -639 0 -1162 0 -1163 0z m2353 -281 c109 -27
207 -123 239 -232 10 -35 12 -915 12 -4480 0 -2440 -2 -4446 -5 -4457 -22
-103 -118 -213 -218 -249 -51 -19 -90 -19 -1238 -20 -836 -1 -1200 2 -1235 10
-106 24 -201 107 -242 212 -17 46 -18 198 -18 4508 l0 4460 26 55 c49 104 129
171 233 195 81 19 2371 17 2446 -2z m-2999 -692 l27 -1 0 -565 c-1 -311 -2
-565 -3 -565 -2 0 -30 35 -64 78 -104 133 -635 817 -661 852 -14 19 -37 48
-51 64 -74 88 -100 130 -85 136 12 4 710 5 837 1z m4387 0 c12 -1 -2 -23 -65
-101 -15 -19 -77 -98 -473 -610 -172 -223 -318 -410 -324 -417 -8 -9 -10 140
-9 545 1 306 2 562 2 569 1 6 9 13 18 15 13 2 801 1 851 -1z m-4360 -2785 c0
-557 0 -570 -18 -546 -10 14 -207 268 -438 565 -231 297 -418 543 -416 547 2
3 199 6 438 6 l433 -1 1 -571z m4365 561 c-3 -5 -155 -201 -337 -435 -182
-235 -376 -484 -430 -554 -54 -71 -101 -128 -105 -128 -4 0 -6 927 -2 1102 l1
26 440 -1 c272 0 437 -4 433 -10z m-4367 -2770 c1 -312 0 -567 -1 -567 -1 0
-78 98 -171 218 -93 119 -174 224 -181 232 -7 8 -49 62 -94 120 -44 58 -91
119 -104 135 -207 265 -325 420 -325 426 0 2 197 4 438 4 l437 0 1 -568z
m4371 564 c2 0 -61 -84 -140 -185 -78 -101 -152 -196 -164 -212 -45 -59 -466
-601 -519 -668 -30 -38 -54 -65 -55 -60 -4 52 -1 1113 3 1120 5 7 862 12 875
5z m-4369 -2776 c0 -311 -3 -565 -6 -565 -4 1 -43 48 -87 107 -44 58 -114 148
-156 202 -210 267 -629 811 -629 816 0 3 197 5 439 5 l438 0 1 -565z m4345
527 c-15 -22 -40 -54 -55 -73 -15 -19 -141 -180 -279 -359 -483 -623 -520
-670 -522 -670 -2 0 0 1063 2 1118 l1 22 441 0 441 0 -29 -38z"/>
<path d="M4992 9593 c-366 -53 -663 -322 -764 -690 -31 -116 -31 -344 1 -463
110 -415 476 -698 902 -698 316 -1 603 153 779 417 281 422 165 1006 -255
1285 -201 134 -422 184 -663 149z m307 -278 c299 -78 505 -353 495 -660 -3
-102 -4 -106 -34 -195 -38 -113 -98 -203 -192 -286 -263 -233 -663 -217 -908
36 -77 80 -122 152 -158 252 -22 64 -26 89 -26 198 -1 133 3 160 34 243 79
212 269 373 492 421 80 17 215 13 297 -9z"/>
<path d="M4985 7379 c-22 -4 -51 -10 -65 -12 -148 -28 -346 -141 -460 -263
-174 -187 -260 -405 -258 -659 2 -354 219 -689 539 -834 354 -160 752 -93
1037 173 98 91 193 242 237 374 40 122 49 182 47 322 -4 333 -189 634 -493
803 -53 29 -180 77 -224 84 -16 3 -50 8 -75 13 -55 10 -231 10 -285 -1z m371
-296 c457 -171 589 -748 248 -1087 -79 -80 -152 -127 -252 -163 -261 -95 -560
-9 -736 211 -265 332 -156 823 223 1008 112 55 171 67 311 64 111 -3 134 -6
206 -33z"/>
<path d="M5015 5169 c-296 -38 -560 -220 -704 -484 -38 -69 -86 -207 -98 -280
-12 -76 -9 -293 6 -355 100 -427 455 -723 881 -735 143 -4 255 14 375 62 444
175 683 659 554 1123 -83 300 -332 551 -634 638 -115 33 -267 46 -380 31z
m316 -293 c108 -35 193 -88 276 -172 57 -57 81 -92 117 -166 51 -107 67 -168
71 -272 12 -304 -199 -588 -496 -666 -114 -29 -277 -22 -384 17 -178 66 -303
179 -382 345 -96 202 -80 450 41 637 100 155 246 255 431 296 89 20 233 11
326 -19z"/>
<path d="M4995 2953 c-205 -40 -360 -115 -494 -239 -129 -119 -227 -282 -272
-454 -32 -123 -35 -332 -5 -445 68 -264 230 -477 456 -603 83 -46 220 -93 315
-107 46 -7 230 -8 260 -2 11 3 40 8 64 12 179 30 389 153 518 304 467 548 174
1390 -532 1526 -63 12 -262 17 -310 8z m260 -273 c103 -17 236 -80 311 -148
144 -130 223 -296 228 -477 15 -469 -438 -806 -879 -653 -100 35 -166 78 -250
162 -134 135 -193 278 -193 465 0 120 16 188 71 301 32 67 58 102 122 166 77
76 111 98 255 164 9 4 49 13 90 20 41 6 82 13 90 14 19 4 78 -2 155 -14z"/>
</g>
</svg>
