<svg xmlns="http://www.w3.org/2000/svg" width="828" height="1063" viewBox="0 0 828 1063" version="1.1">
	<path d="M 267.725 30.554 C 240.576 37.186, 222.066 61.157, 222.015 89.750 L 222 98 161.250 98.004 C 102.761 98.007, 100.381 98.080, 97.299 99.960 C 95.538 101.033, 93.400 103.259, 92.549 104.906 C 90.492 108.883, 90.571 115.934, 92.707 119.027 C 93.646 120.387, 120.777 155.475, 152.997 197 C 185.218 238.525, 213.924 275.564, 216.790 279.310 L 222 286.120 222 302.560 L 222 319 161.960 319 C 103.796 319, 101.797 319.063, 97.981 321.010 C 95.814 322.115, 93.357 324.343, 92.521 325.960 C 90.439 329.986, 90.603 336.849, 92.870 340.500 C 93.894 342.150, 123.378 380.388, 158.389 425.474 L 222.046 507.447 221.773 523.974 L 221.500 540.500 159.673 541 L 97.845 541.500 94.423 545.235 C 91.403 548.530, 91 549.611, 91 554.409 C 91 559.130, 91.484 560.483, 94.674 564.673 C 96.694 567.328, 126.169 605.351, 160.174 649.170 L 222 728.839 222 745.420 L 222 762 161.901 762 C 95.386 762, 96.886 761.861, 92.886 768.420 C 90.763 771.901, 90.394 778.996, 92.164 782.316 C 92.805 783.517, 122.167 821.625, 157.414 867 L 221.500 949.500 222.092 964.500 C 222.559 976.346, 223.156 980.867, 224.930 986 C 231.188 1004.111, 245.384 1017.941, 264.720 1024.765 C 269.087 1026.306, 280.149 1026.477, 392.705 1026.749 C 529.669 1027.079, 523.985 1027.327, 537.707 1020.405 C 551.776 1013.308, 562.374 1000.859, 567.609 985.278 C 569.762 978.871, 570.316 975.014, 570.753 963.396 L 571.283 949.292 633.756 868.896 C 668.116 824.678, 697.527 786.499, 699.114 784.054 C 702.677 778.566, 702.878 773.610, 699.730 768.898 C 694.964 761.764, 697.357 762.003, 630.750 762.002 L 571 762 571 745.098 L 571 728.196 635.552 645.025 C 671.056 599.282, 700.531 560.734, 701.052 559.363 C 703.274 553.520, 700.799 546.068, 695.580 542.886 C 692.656 541.103, 689.423 541.007, 631.750 541.004 L 571 541 571.034 523.750 L 571.067 506.500 633.667 426 C 668.097 381.725, 697.590 343.475, 699.207 341 C 701.637 337.281, 702.067 335.743, 701.684 332.136 C 701.126 326.886, 698.554 323.110, 693.929 320.752 C 690.778 319.145, 685.659 319.003, 630.750 319.002 L 571 319 571 302.138 L 571 285.276 635.866 201.703 C 671.543 155.738, 701.012 117.089, 701.353 115.815 C 703.019 109.594, 700.655 103.186, 695.526 100.016 C 692.350 98.053, 690.676 98, 631.782 98 L 571.301 98 570.644 88.250 C 569.463 70.700, 564.908 59.446, 554.419 48.162 C 547.597 40.823, 540.497 36.113, 530.242 32.123 L 523.500 29.500 398.500 29.322 C 293.859 29.173, 272.559 29.373, 267.725 30.554 M 273.929 56.367 C 263.701 59.125, 255.825 65.883, 251.101 75.954 L 248.500 81.500 248.500 528 L 248.500 974.500 251.135 980.120 C 256.259 991.048, 264.819 997.745, 276.500 999.964 C 280.837 1000.788, 315.076 1001.020, 400 1000.802 C 535.045 1000.454, 522.650 1001.402, 533.603 990.579 C 538.173 986.064, 540.303 983.008, 541.882 978.701 L 544.009 972.901 543.754 526.201 L 543.500 79.500 541.118 75.031 C 537.382 68.023, 534.984 65.228, 529.550 61.552 C 519.350 54.651, 526.384 54.993, 396.068 55.067 C 306.228 55.119, 277.422 55.426, 273.929 56.367 M 376.516 104.659 C 359.984 108.201, 344.403 116.615, 331.653 128.884 C 319.133 140.931, 310.491 155.717, 305.867 173 C 302.939 183.943, 302.643 205.714, 305.278 216.237 C 314.283 252.198, 339.802 277.717, 375.763 286.722 C 380.483 287.904, 386.691 288.409, 396.500 288.408 C 412.791 288.407, 422.032 286.420, 435.844 279.951 C 462.104 267.649, 481.595 243.021, 487.412 214.792 C 489.229 205.971, 489.500 188.188, 487.949 179.434 C 481.186 141.250, 450.750 110.814, 412.566 104.051 C 404.171 102.564, 384.767 102.892, 376.516 104.659 M 134.630 127.250 C 135.891 129.358, 218.115 235.368, 220.121 237.472 C 221.961 239.403, 222 238.265, 222 182.722 L 222 126 177.941 126 C 142.961 126, 134.036 126.258, 134.630 127.250 M 571 182.700 C 571 214.022, 571.381 238.975, 571.852 238.450 C 572.321 237.928, 591.512 213.200, 614.498 183.500 C 637.485 153.800, 656.971 128.713, 657.801 127.750 C 659.235 126.087, 657.115 126, 615.155 126 L 571 126 571 182.700 M 383.500 130.482 C 368.630 133.761, 358.226 139.706, 347.638 150.973 C 336.095 163.256, 330 178.660, 330 195.550 C 330 214.189, 336.164 229.013, 349.500 242.443 C 362.726 255.764, 377.698 262, 396.450 262 C 413.784 262, 428.928 255.867, 441.683 243.681 C 463.684 222.661, 468.860 193.325, 455.380 166.043 C 442.301 139.571, 411.464 124.316, 383.500 130.482 M 134.167 347.934 C 134.424 348.655, 170.605 395.474, 220.718 459.933 C 221.680 461.170, 221.943 449.449, 221.968 404.250 L 222 347 177.917 347 C 151.024 347, 133.963 347.364, 134.167 347.934 M 571 403.714 C 571 452.248, 571.201 460.217, 572.394 458.964 C 573.959 457.320, 657.265 349.998, 658.395 348.169 C 658.943 347.284, 648.431 347, 615.059 347 L 571 347 571 403.714 M 134.328 569.412 C 134.626 570.188, 154.361 595.938, 178.185 626.634 L 221.500 682.445 221.760 626.473 C 221.903 595.688, 221.804 569.938, 221.541 569.250 C 221.169 568.276, 211.413 568, 177.424 568 C 140.258 568, 133.866 568.209, 134.328 569.412 M 571 625.200 C 571 656.660, 571.375 681.973, 571.834 681.450 C 574.634 678.260, 659 568.975, 659 568.537 C 659 568.242, 639.200 568, 615 568 L 571 568 571 625.200 M 176.680 846.250 C 200.665 877.188, 220.674 902.928, 221.145 903.450 C 221.620 903.977, 222 878.954, 222 847.200 L 222 790 177.536 790 L 133.071 790 176.680 846.250 M 571 846.714 C 571 894.897, 571.207 903.208, 572.376 901.964 C 573.381 900.894, 627.620 830.992, 658.281 791.250 C 659.049 790.254, 650.268 790, 615.122 790 L 571 790 571 846.714" stroke="none" fill="black" fill-rule="evenodd"/>
</svg>